# xmcd
#
# Track frame offsets: 
#        150
#        13359
#        24548
#        35684
#        48270
#        60983
#        73928
#        84153
#        97943
#        112712
#        126014
#        138359
#        150654
#        163680
#        178160
#        192415
#        204818
#        215027
#        225009
#        236870
#        249793
#        264067
#        276216
#        288951
#        301676
#        314627
#
# Disc length: 4367 seconds
#
# Revision: 1
# Processed by: cddbd v1.5.2PL0 Copyright (c) Steve Scherf et al.
# Submitted via: ExactAudioCopyFreeDBPlugin 1.0
#
DISCID=59110d1a
DTITLE=Various Artist - The History Of Rhythm And Blues 1952-1957 (Di
DTITLE=sc 1)
DYEAR=2010
DGENRE=Blues
TTITLE0=LITTLE JUNIOR PARKER - Feelin' good  (1953)
TTITLE1=ELVIS PRESLEY - Mystery train  (1955)
TTITLE2=BILLY EMERSON - Red hot  (1955)
TTITLE3=ARTHUR GUNTHER - Baby let's play house  (1954)
TTITLE4=RUFUS THOMAS - Tiger man  (1953)
TTITLE5=CARL PERKINS - Honey don't  (1955)
TTITLE6=BILLY EMERSON - If lovin' is believing  (1954)
TTITLE7=B.B. KING - 3 O'clock blues  (1952)
TTITLE8=LITTLE WALKER and HIS WILDCATS - Sad hours  (1952)
TTITLE9=HOWLIN' WOLF - Evil  (1954)
TTITLE10=WILLIE NIX - Just can't stay  (1953)
TTITLE11=EDDIE BOYD - Five long years  (1952)
TTITLE12=MUDDY WATERS - I'm your hoochie coochie man  (1954)
TTITLE13=LOWELL FULSON - Reconsider baby  (1954)
TTITLE14=WILLIE MABON - I don't know  (1953)
TTITLE15=BO DIDDLEY - She's fine, she's mine  (1955)
TTITLE16=BILLY BOY ARNOLD - I ain't got you  (1956)
TTITLE17=JOHN LEE HOOKER - Dimples  (1956)
TTITLE18=SONNY BOY WILLIAMSON - Don't start me to talkin'  (1955)
TTITLE19=BO DIDDLEY - Pretty thing  (1955)
TTITLE20=HOWLIN' WOLF - Smokestack lightnin'  (1956)
TTITLE21=ANN COLE - Got my mojo working  (1957)
TTITLE22=JIMMY ROGERS - Walking by myself  (1957)
TTITLE23=SLIM HARPO - I got love if you want it  (1957)
TTITLE24=JIMMY REED - The sun is shining  (1957)
TTITLE25=SONNY BOY WILLIAMSON - No more nights by myself  (1956)
EXTD=
EXTT0=
EXTT1=
EXTT2=
EXTT3=
EXTT4=
EXTT5=
EXTT6=
EXTT7=
EXTT8=
EXTT9=
EXTT10=
EXTT11=
EXTT12=
EXTT13=
EXTT14=
EXTT15=
EXTT16=
EXTT17=
EXTT18=
EXTT19=
EXTT20=
EXTT21=
EXTT22=
EXTT23=
EXTT24=
EXTT25=
PLAYORDER=
